    <svg class="logo w-[10rem]" version="1" xmlns="http://www.w3.org/2000/svg" viewBox="0 0 350 350" preserveAspectRatio="xMidYMid meet">
        <g transform="matrix(0.1,0,0,-0.1,0,350)" fill="#000000" stroke="none">
          <path transform="matrix(1,0,0,1,0,-37.3)" d="M 1485 3397.6 c -345 -53 -638 -201 -886 -449 c -233 -232 -372 -488 -440 -810 c -31 -144 -33 -445 -5 -595 c 45 -242 152 -484 303 -685 c 54 -72 211 -227 293 -290 c 313 -239 710 -356 1096 -321 c 395 35 728 194 1010 483 c 219 225 362 501 420 813 c 28 149 26 452 -4 592 c -105 491 -412 891 -847 1108 c -144 71 -209 95 -365 132 c -90 21 -134 25 -310 28 c -113 2 -232 0 -265 -6 z m 373 -69 c 196 -21 357 -67 526 -151 c 152 -76 269 -161 397 -289 c 212 -212 344 -452 411 -751 c 20 -90 23 -131 23 -309 c 0 -178 -3 -219 -23 -309 c -136 -604 -578 -1042 -1186 -1173 c -147 -32 -436 -32 -584 0 c -605 131 -1049 571 -1184 1173 c -20 90 -23 131 -23 309 c 0 226 10 290 70 476 c 150 459 543 838 1004 969 c 202 57 382 75 569 55 z"></path>
          <path transform="matrix(1,0,0,1,0,-62.6)" d="M 1713 3346 c -65 -13 -110 -127 -82 -207 c 31 -88 141 -114 201 -47 c 15 17 28 38 28 46 c 0 25 -46 18 -64 -10 c -11 -17 -26 -25 -44 -25 c -49 0 -65 21 -70 88 c -4 55 -2 63 21 86 c 33 33 62 33 92 0 c 16 -17 32 -24 49 -22 c 23 3 25 5 13 27 c -23 47 -88 75 -144 64 z"></path>
          <path transform="matrix(1,0,0,1,0,-62.4)" d="M 1410 3310.7 c -30 -5 -59 -13 -63 -17 c -4 -4 4 -66 18 -137 c 14 -71 25 -130 25 -132 c 0 -2 10 -2 23 0 c 20 3 22 8 19 55 l -3 53 l 41 6 c 63 10 90 37 90 89 c 0 79 -43 103 -150 83 z m 94 -71 c 12 -33 2 -46 -47 -57 c -39 -8 -37 -10 -51 52 c -5 22 -2 27 16 31 c 49 10 72 3 82 -26 z"></path>
          <path transform="matrix(1,0,0,1,0,-62)" d="M 1965 3300.3 c -8 -24 -64 -252 -62 -254 c 1 -1 14 -5 28 -9 c 24 -6 26 -3 38 49 c 7 31 16 58 20 60 c 6 4 91 -13 99 -20 c 2 -1 -2 -28 -9 -58 c -13 -61 -14 -61 17 -70 c 20 -6 24 2 54 125 c 27 109 31 133 19 140 c -26 16 -38 9 -48 -28 c -6 -21 -11 -44 -11 -52 c 0 -9 -8 -11 -26 -7 c -15 4 -39 10 -55 13 c -32 6 -34 11 -18 67 c 8 31 8 41 -3 47 c -19 13 -38 11 -43 -3 z"></path>
          <path transform="matrix(1,0,0,1,0,-61.4)" d="M 1218 3254.8 c -10 -2 -18 -10 -18 -16 c 0 -7 19 -67 42 -134 c 38 -109 45 -122 63 -117 c 34 11 35 17 4 104 c -49 141 -60 170 -67 169 c -4 -1 -15 -3 -24 -6 z"></path>
          <path transform="matrix(1,0,0,1,0,-59.8)" d="M 1095 3198.2 c -11 -6 -21 -12 -23 -14 c -2 -1 6 -20 17 -43 c 12 -22 21 -44 21 -49 c 0 -10 -72 -52 -89 -52 c -6 0 -21 20 -33 44 c -19 40 -24 44 -42 34 c -12 -6 -23 -12 -25 -14 c -4 -4 122 -244 129 -244 c 4 0 14 6 24 13 c 17 13 17 16 -9 66 c -14 29 -25 54 -23 55 c 2 2 25 14 51 29 l 48 26 l 26 -55 c 15 -29 30 -54 33 -54 c 3 0 14 6 25 13 c 17 13 14 21 -46 135 c -59 110 -66 119 -84 110 z"></path>
          <path transform="matrix(1,0,0,1,0,-59.8)" d="M 2260 3164.3 c -36 -31 -56 -66 -65 -116 c -19 -98 106 -184 194 -132 c 66 39 103 154 67 209 c -44 67 -140 86 -196 39 z m 137 -46 c 25 -23 29 -51 12 -95 c -16 -44 -49 -73 -81 -73 c -63 0 -94 41 -77 103 c 22 79 96 112 146 65 z"></path>
          <path transform="matrix(1,0,0,1,0,-57.8)" d="M 2497 2946.3 c -85 -103 -85 -103 -66 -123 c 20 -20 20 -20 54 19 l 33 40 l 33 -28 c 49 -42 75 -49 110 -31 c 36 19 64 73 55 108 c -5 22 -107 117 -126 117 c -4 0 -46 -46 -93 -102 z m 140 10 c 25 -23 30 -57 11 -76 c -18 -18 -40 -15 -72 11 l -29 24 l 23 31 c 28 38 36 39 67 10 z"></path>
          <path transform="matrix(1,0,0,1,0,-56.7)" d="M 739 2968.3 c -32 -31 -39 -46 -39 -76 c 0 -79 79 -165 151 -165 c 73 0 136 72 123 140 c -8 38 -14 42 -38 25 c -13 -10 -17 -21 -12 -38 c 8 -34 -27 -77 -63 -77 c -49 0 -111 66 -111 120 c 0 35 37 63 75 57 c 24 -4 38 -1 49 12 c 23 25 2 41 -52 41 c -38 0 -50 -5 -83 -39 z"></path>
          <path transform="matrix(1,0,0,1,0,-52.9)" d="M 1648 2786.6 c -12 -27 -45 -102 -75 -167 c -29 -66 -53 -123 -53 -128 c 0 -5 21 -8 47 -6 l 47 3 l 44 110 c 24 61 47 113 51 118 c 4 4 30 -47 57 -113 l 49 -120 l 48 0 c 26 0 47 2 47 4 c 0 4 -116 266 -140 319 c -11 23 -19 27 -57 27 c -43 0 -45 -1 -65 -47 z">
            <animate attributeName="opacity" dur="3s" repeatCount="1" from="0" to="1" begin="0s" end="3s"></animate>
          </path>
          <path transform="matrix(1,0,0,1,0,-38.3)" d="M 932 2646.6 c -12 -13 -22 -25 -22 -28 c 0 -3 169 -173 375 -379 l 375 -375 l -375 -375 c -206 -206 -375 -380 -375 -386 c 0 -6 10 -20 23 -32 l 23 -22 l 374 375 c 206 206 379 375 385 375 c 5 0 179 -169 385 -375 l 374 -374 l 23 21 c 13 12 23 26 23 32 c 0 6 -169 180 -375 386 l -375 375 l 377 377 l 378 378 l -28 27 l -27 28 l -378 -378 l -377 -377 l -375 375 c -206 206 -378 375 -381 375 c -3 0 -15 -10 -27 -23 z"></path>
          <path transform="matrix(1,0,0,1,0,-46.5)" d="M 346 2355.5 c -9 -12 -16 -34 -16 -48 c 0 -44 26 -70 70 -70 c 30 0 43 6 59 26 c 26 34 26 54 0 88 c -27 35 -90 37 -113 4 z"></path>
          <path transform="matrix(1,0,0,1,0,-46.4)" d="M 2977 2359.4 c -23 -25 -22 -85 1 -105 c 26 -24 85 -22 107 3 c 43 48 10 120 -55 120 c -23 0 -43 -7 -53 -18 z"></path>
          <path transform="matrix(1,0,0,1,0,-38.3)" d="M 876 2059.6 c -34 -11 -73 -45 -92 -82 c -21 -41 -18 -48 26 -48 c 30 0 42 5 47 18 c 13 36 46 62 81 62 c 72 0 114 -85 97 -197 c -16 -110 -131 -142 -171 -47 c -13 31 -18 34 -55 34 c -37 0 -40 -2 -34 -22 c 22 -72 94 -129 161 -128 c 38 1 100 24 126 47 c 71 63 77 241 11 315 c -42 48 -128 68 -197 48 z">
            <animate attributeName="opacity" dur="3s" repeatCount="1" from="0" to="1" begin="0s" end="3s"></animate>
          </path>
          <path transform="matrix(1,0,0,1,0,-38.1)" d="M 2424 2059.4 c -34 -11 -90 -67 -105 -107 c -14 -36 -11 -159 5 -196 c 30 -74 123 -120 205 -102 c 38 8 87 47 106 86 c 25 47 20 59 -25 59 c -34 0 -40 -3 -40 -20 c 0 -33 -44 -70 -83 -70 c -58 0 -97 60 -97 150 c 0 90 39 150 97 150 c 36 0 83 -36 83 -65 c 0 -11 11 -15 46 -15 c 42 0 45 1 38 23 c -11 36 -44 76 -75 93 c -38 19 -115 26 -155 14 z">
            <animate attributeName="opacity" dur="3s" repeatCount="1" from="0" to="1" begin="0s" end="3s"></animate>
          </path>
          <path transform="matrix(1,0,0,1,0,-32.7)" d="M 2948 1666.2 c -4 -16 11 -29 77 -68 c 46 -27 81 -52 79 -55 c -2 -4 -37 -10 -76 -14 c -87 -9 -118 -19 -118 -40 c 0 -8 2 -15 4 -15 c 2 0 49 -9 105 -21 c 57 -11 105 -18 108 -16 c 13 14 -12 25 -82 37 c -41 7 -75 16 -75 20 c 0 4 33 10 73 14 c 135 13 139 26 27 90 c -44 26 -80 48 -80 50 c 0 3 92 -14 158 -29 c 15 -4 22 -1 22 8 c 0 10 -28 20 -87 31 c -49 10 -98 20 -109 22 c -15 4 -23 0 -26 -14 z"></path>
          <path transform="matrix(1,0,0,1,0,-32.5)" d="M 375 1653 c -110 -23 -121 -27 -109 -39 c 5 -5 37 -3 79 6 c 38 8 75 13 82 12 c 7 -2 -23 -23 -67 -48 c -105 -59 -103 -72 12 -85 c 48 -6 90 -13 93 -16 c 3 -4 -31 -13 -76 -22 c -45 -10 -84 -19 -87 -22 c -21 -21 71 -13 181 16 c 26 7 37 15 37 29 c 0 15 -10 20 -57 26 c -32 3 -78 10 -103 13 l -45 6 l 88 54 c 62 37 87 57 83 68 c -3 8 -6 17 -6 19 c 0 5 1 5 -105 -17 z"></path>
          <path transform="matrix(1,0,0,1,0,-23.3)" d="M 1580 1282.2 l -135 -72 l -2 -160 l -3 -160 l 134 -77 c 73 -43 136 -78 140 -78 c 4 0 65 35 136 77 l 130 76 l 0 158 l 0 158 l -67 39 c -38 22 -97 55 -133 75 l -65 35 l -135 -71 z m 205 -58 c 41 -22 75 -42 75 -44 c 0 -2 -33 -22 -74 -44 l -74 -41 l -71 41 c -64 36 -87 59 -62 59 c 5 0 35 15 67 34 c 33 19 60 35 62 35 c 2 1 36 -17 77 -40 z m -147 -176 l 32 -17 l 0 -88 c 0 -48 -3 -88 -7 -88 c -4 0 -37 18 -75 40 l -68 41 l 0 90 l 0 90 l 43 -26 c 23 -14 57 -34 75 -42 z m 272 -27 l 0 -84 l -72 -42 c -40 -24 -76 -45 -80 -47 c -5 -2 -8 36 -8 86 l 0 90 l 68 40 c 37 22 73 40 80 41 c 9 0 12 -23 12 -84 z">
            <animate attributeName="opacity" dur="3s" repeatCount="1" from="0" to="1" begin="0s" end="3s"></animate>
          </path>
          <path transform="matrix(1,0,0,1,0,-27)" d="M 2855 1330.8 c -3 -10 22 -40 76 -91 c 45 -42 86 -77 90 -79 c 19 -7 8 26 -15 47 c -23 22 -23 24 -8 62 c 14 36 18 39 54 39 c 51 0 49 17 -4 24 c -115 14 -187 13 -193 -2 z m 112 -18 c 21 -6 22 -8 7 -35 c -8 -16 -16 -29 -17 -29 c -2 0 -18 16 -37 35 l -34 35 l 30 0 c 16 0 39 -3 51 -6 z"></path>
          <path transform="matrix(1,0,0,1,0,-27)" d="M 413 1331.7 c -56 -3 -73 -7 -73 -18 c 0 -11 12 -15 40 -15 c 36 0 41 -3 55 -37 c 15 -36 15 -37 -12 -65 c -17 -17 -23 -32 -17 -37 c 5 -6 41 21 92 70 c 94 89 100 110 30 107 c -24 -1 -76 -4 -115 -5 z m 97 -58 c -36 -37 -45 -36 -55 8 c -7 27 -7 27 41 27 l 48 0 l -34 -35 z"></path>
          <path transform="matrix(1,0,0,1,0,-23.7)" d="M 555 1133.6 c -38 -27 -76 -53 -84 -58 c -20 -11 42 -108 75 -116 c 39 -10 90 5 123 35 c 47 44 49 72 10 136 c -18 30 -38 55 -44 54 c -5 0 -41 -23 -80 -51 z m 121 -45 c 12 -45 -26 -93 -89 -108 c -22 -6 -32 -1 -57 25 c -16 18 -30 38 -30 45 c 0 7 30 33 68 58 l 67 46 l 18 -22 c 9 -12 20 -32 23 -44 z"></path>
          <path transform="matrix(1,0,0,1,0,-23.5)" d="M 2778 1154.4 c -26 -14 -82 -100 -71 -108 c 93 -65 164 -111 173 -111 c 15 0 70 90 70 116 c 0 12 -12 36 -26 54 c -45 53 -105 73 -146 49 z m 92 -35 c 56 -38 65 -80 27 -127 l -22 -27 l -67 45 c -38 25 -68 49 -68 53 c 0 10 31 55 44 64 c 19 13 61 9 86 -8 z"></path>
          <path transform="matrix(1,0,0,1,0,-19.7)" d="M 700 906.8 l -75 -75 l 57 -56 c 35 -35 60 -54 68 -49 c 8 5 -3 23 -36 56 l -48 49 l 27 27 l 27 27 l 41 -42 c 23 -23 46 -39 51 -36 c 6 4 -9 26 -33 50 c -42 43 -42 44 -24 64 c 25 28 33 26 81 -21 c 25 -25 47 -38 54 -34 c 13 8 -85 115 -105 115 c -6 0 -44 -34 -85 -75 z"></path>
          <path transform="matrix(1,0,0,1,0,-19.6)" d="M 2577 913.6 l -47 -48 l 78 -76 c 55 -55 81 -75 91 -69 c 10 7 7 15 -18 36 c -38 35 -39 44 -3 78 c 35 33 52 34 82 2 c 17 -18 27 -22 36 -14 c 10 8 6 17 -20 40 c -19 16 -41 29 -50 29 c -9 0 -16 8 -16 18 c 0 11 -8 26 -18 35 c -32 29 -64 21 -115 -31 z m 95 11 c 24 -21 23 -30 -8 -70 c -29 -39 -40 -41 -71 -11 l -23 22 l 37 38 c 20 21 39 38 42 38 c 2 0 13 -7 23 -17 z"></path>
          <path transform="matrix(1,0,0,1,0,-16.9)" d="M 2420 789 c -30 -22 -56 -44 -58 -50 c -3 -7 39 -73 109 -173 c 5 -7 94 45 138 79 c 1 1 0 7 -3 13 c -4 7 -28 -4 -63 -26 l -55 -37 l -19 23 c -27 34 -24 43 26 74 c 43 28 57 47 34 47 c -6 0 -31 -14 -56 -31 c -47 -33 -47 -33 -74 13 c -8 15 0 24 46 54 c 30 20 52 40 49 45 c -8 14 -15 11 -74 -31 z"></path>
          <path transform="matrix(1,0,0,1,0,-16.3)" d="M 988 665.4 c -35 -56 -53 -96 -48 -101 c 5 -5 11 -8 13 -5 c 28 35 115 185 111 191 c -11 17 -20 6 -76 -85 z"></path>
          <path transform="matrix(1,0,0,1,0,-14.4)" d="M 1090 620.6 c -46 -99 -48 -108 -35 -113 c 5 -2 26 34 46 79 c 42 93 38 96 60 -57 c 12 -85 31 -114 48 -70 c 5 12 25 57 45 100 c 41 89 40 87 24 87 c -7 0 -28 -36 -47 -80 c -19 -44 -36 -79 -37 -77 c -3 3 -34 198 -34 212 c 0 3 -7 5 -15 5 c -9 0 -31 -34 -55 -86 z"></path>
          <path transform="matrix(1,0,0,1,0,-14.9)" d="M 2215 668.1 c -49 -23 -75 -40 -68 -44 c 7 -5 21 -3 32 3 c 36 19 46 11 80 -68 c 38 -85 45 -96 59 -91 c 5 2 -8 44 -30 94 c -37 84 -38 90 -22 102 c 10 7 24 13 31 13 c 7 0 13 7 13 15 c 0 20 -3 19 -95 -24 z"></path>
          <path transform="matrix(1,0,0,1,0,-13.2)" d="M 1975 580.5 c -28 -27 -31 -52 -11 -80 c 11 -15 25 -18 69 -17 c 80 2 115 -37 65 -72 c -31 -22 -65 -20 -85 4 c -18 21 -43 27 -43 10 c 0 -25 41 -50 81 -50 c 52 0 105 46 93 82 c -12 40 -25 48 -79 48 c -30 0 -60 3 -69 6 c -26 10 -19 49 9 62 c 36 17 49 15 70 -8 c 12 -14 22 -17 29 -10 c 6 6 3 16 -9 30 c -27 29 -89 27 -120 -5 z"></path>
          <path transform="matrix(1,0,0,1,0,-12.8)" d="M 1449 480.1 c -46 -86 -53 -105 -39 -105 c 10 0 23 13 30 31 c 13 29 15 31 54 25 c 44 -7 56 -19 56 -53 c 0 -12 5 -25 11 -28 c 25 -16 24 0 -17 208 c -11 52 -36 31 -95 -78 z m 83 5 c 3 -34 2 -35 -27 -32 c -16 2 -32 5 -34 7 c -1 2 7 22 20 45 c 25 44 35 40 41 -20 z"></path>
          <path transform="matrix(1,0,0,1,0,-12.5)" d="M 1843 562.8 c -5 -7 -18 -44 -28 -83 c -23 -91 -31 -107 -41 -80 c -60 157 -62 160 -84 163 c -23 4 -23 3 -17 -65 c 4 -37 7 -90 7 -116 c 0 -34 4 -47 12 -45 c 9 3 11 30 9 94 c -1 49 0 87 3 84 c 3 -3 18 -41 34 -85 c 39 -106 54 -108 82 -13 c 33 116 39 122 39 43 c 1 -77 9 -115 22 -115 c 11 0 11 49 3 153 c -7 76 -18 94 -41 65 z"></path>
        </g>
      </svg>